<svg width="500" height="600" viewBox="0 0 500 600" fill="none" xmlns="http://www.w3.org/2000/svg">
  <path
    d="M248.91 599.999C232.786 599.999 218.429 599.74 206.177 599.236C193.811 598.725 183.025 597.89 174.117 596.752C165.172 595.615 157.73 594.138 151.942 592.367C146.192 590.61 142.02 588.508 139.427 586.125C136.909 583.77 135.593 580.933 135.593 577.708C135.593 574.727 137.021 572.063 139.84 569.809C142.697 567.519 147.282 565.554 153.446 563.977C159.61 562.393 167.352 561.09 176.523 560.11C185.618 559.138 196.254 558.447 208.244 558.044C220.083 557.648 233.839 557.446 249.173 557.446C267.702 557.446 284.352 557.777 298.634 558.426C313.142 559.081 325.432 560.218 335.241 561.795C345.051 563.379 352.493 565.503 357.266 568.095C362.001 570.651 364.407 573.892 364.407 577.708C364.407 580.941 362.979 583.777 360.16 586.139C357.303 588.522 352.868 590.618 346.93 592.374C340.992 594.146 333.287 595.615 324.041 596.759C314.871 597.897 303.971 598.732 291.719 599.236C279.579 599.74 265.147 599.999 248.873 599.999H248.91Z"
    fill="white" />
  <path
    d="M249.838 72.3404C247.45 72.3404 245.323 71.8997 243.508 71.0429C241.676 70.1738 240.078 68.7539 238.758 66.82C237.433 64.886 236.33 62.3767 235.473 59.3656C234.621 56.379 234.003 52.8048 233.619 48.7532C233.246 44.7507 233.051 39.928 233.051 34.4443C233.051 29.3768 233.262 24.8479 233.68 21.0167C234.103 17.1242 234.782 13.7826 235.696 11.102C236.609 8.40911 237.756 6.19361 239.114 4.52892C240.462 2.87648 242.038 1.70141 243.814 1.01595C245.568 0.342729 247.606 0 249.877 0C252.622 0 255.089 0.563056 257.205 1.66469C259.354 2.77856 261.175 4.71253 262.628 7.39316C264.082 10.086 265.184 13.6969 265.891 18.1035C266.593 22.4488 266.949 27.9569 266.949 34.4443C266.949 39.9402 266.737 44.7629 266.32 48.7777C265.897 52.8293 265.24 56.3912 264.36 59.3778C263.48 62.389 262.339 64.886 260.969 66.8322C259.61 68.7662 257.996 70.1861 256.18 71.0429C254.382 71.8997 252.244 72.3404 249.833 72.3404H249.838Z"
    fill="white" />
  <path fill-rule="evenodd" clip-rule="evenodd"
    d="M363.878 540.423C359.267 539.089 353.73 537.928 347.33 536.953C335.885 535.218 321.547 533.965 304.621 533.244C287.959 532.531 268.534 532.166 246.917 532.166C229.027 532.166 212.978 532.388 199.166 532.824C185.178 533.268 172.769 534.029 162.158 535.099C151.459 536.176 142.426 537.611 135.235 539.354C133.894 539.678 132.618 540.016 131.406 540.369C113.766 535.373 97.9472 528.77 84.182 520.64C64.6353 509.142 48.3739 494.225 35.7261 476.324C23.1604 458.569 14.0441 437.321 8.37717 413.235C2.87454 389.44 0 360.77 0 328.17C0 298.044 3.12093 271.12 9.28059 248.344C15.5224 225.204 25.542 205.338 39.0112 189.402C52.4803 173.394 69.3988 160.223 89.4382 150.326C109.313 140.503 132.556 133.517 158.755 129.442C184.625 125.44 214.685 123.402 248.193 123.402C288.683 123.402 325.066 126.75 356.275 133.299C387.976 139.921 414.833 151.418 436.268 167.354C457.704 183.363 473.965 204.829 484.396 231.025C494.744 256.858 500 289.603 500 328.17C500 360.842 496.879 389.513 490.719 413.38C484.478 437.466 474.787 458.642 461.81 476.397C448.834 494.298 431.997 509.142 411.794 520.712C397.616 528.847 381.547 535.451 363.878 540.423Z"
    fill="white" />
  <path
    d="M248.264 455.319C222.586 455.319 199.72 453.608 180.207 450.281C160.514 446.907 143.335 441.395 129.149 433.886C114.904 426.378 103.052 416.636 93.834 404.946C84.676 393.351 78.0319 379.475 73.9018 363.745C69.8914 348.206 67.7964 329.482 67.7964 308.193C67.7964 288.519 70.071 270.936 74.5602 256.062C79.1093 240.95 86.4118 227.977 96.2283 217.57C106.045 207.115 118.375 198.514 132.98 192.051C147.465 185.635 164.405 181.073 183.499 178.412C202.354 175.798 224.261 174.468 248.683 174.468C278.192 174.468 304.709 176.654 327.454 180.931C350.559 185.255 370.132 192.763 385.755 203.171C401.377 213.625 413.229 227.644 420.83 244.752C428.372 261.622 432.203 283.006 432.203 308.193C432.203 329.53 429.929 348.253 425.439 363.84C420.89 379.57 413.827 393.398 404.37 404.994C394.913 416.684 382.642 426.378 367.917 433.934C353.312 441.442 335.954 446.955 316.441 450.281C297.107 453.608 274.122 455.319 248.204 455.319H248.264Z"
    fill="#00A0FF" />
  <path
    d="M175.545 331.913C171.066 331.913 167.078 331.317 163.674 330.158C160.24 328.982 157.243 327.061 154.769 324.444C152.284 321.828 150.217 318.433 148.609 314.359C147.012 310.318 145.853 305.483 145.133 300.001C144.433 294.586 144.068 288.061 144.068 280.642C144.068 273.786 144.465 267.659 145.248 262.475C146.041 257.209 147.315 252.688 149.027 249.061C150.739 245.418 152.89 242.421 155.437 240.168C157.964 237.933 160.918 236.343 164.249 235.416C167.537 234.505 171.358 234.041 175.618 234.041C180.765 234.041 185.39 234.803 189.357 236.293C193.387 237.8 196.801 240.417 199.526 244.044C202.251 247.687 204.318 252.572 205.644 258.534C206.959 264.413 207.627 271.865 207.627 280.642C207.627 288.078 207.23 294.603 206.447 300.034C205.654 305.516 204.422 310.335 202.773 314.376C201.123 318.45 198.983 321.828 196.415 324.461C193.867 327.078 190.84 328.999 187.436 330.158C184.064 331.317 180.055 331.913 175.534 331.913H175.545Z"
    fill="white" />
  <path
    d="M323.85 331.913C319.371 331.913 315.383 331.317 311.98 330.158C308.545 328.982 305.548 327.061 303.074 324.444C300.589 321.828 298.522 318.433 296.914 314.359C295.317 310.318 294.158 305.483 293.438 300.001C292.738 294.586 292.373 288.061 292.373 280.642C292.373 273.786 292.77 267.659 293.553 262.475C294.346 257.209 295.62 252.688 297.332 249.061C299.044 245.418 301.195 242.421 303.742 240.168C306.269 237.933 309.223 236.343 312.554 235.416C315.842 234.505 319.663 234.041 323.923 234.041C329.07 234.041 333.695 234.803 337.662 236.293C341.692 237.8 345.106 240.417 347.831 244.044C350.556 247.687 352.623 252.572 353.949 258.534C355.264 264.413 355.932 271.865 355.932 280.642C355.932 288.078 355.536 294.603 354.753 300.034C353.959 305.516 352.727 310.335 351.078 314.376C349.428 318.45 347.288 321.828 344.72 324.461C342.172 327.078 339.145 328.999 335.741 330.158C332.369 331.317 328.36 331.913 323.84 331.913H323.85Z"
    fill="white" />
</svg>
  