<svg width="125" height="23" viewBox="0 0 125 23" fill="none" xmlns="http://www.w3.org/2000/svg">
  <path
    d="M114.518 6.04064L115.932 6.04406L117.595 6.04064H119.495H121.479L121.821 6.04406H123.491V6.92189V7.92513V8.80297L122.34 8.76075H121.715H121.089H119.787H119.016L118.245 8.80297C118.245 8.80297 117.408 8.80297 116.96 8.80297H115.675H114.518C114.518 8.63075 114.535 8.31536 114.535 8.08573C114.535 7.85611 114.535 7.61213 114.535 7.35381C114.535 7.09548 114.529 6.8515 114.518 6.62188C114.518 6.3779 114.518 6.21286 114.518 6.04064ZM116.317 3.28516H116.96H117.602H118.116H118.544H118.887V4.47944V5.66785C118.876 6.45718 118.918 7.23899 118.907 8.08573C118.907 8.93247 118.901 9.81509 118.89 10.7336C118.89 11.6521 118.89 12.628 118.89 13.6613C118.89 14.2066 118.968 14.8295 119.125 15.217C119.282 15.5901 119.551 15.87 119.932 16.0566C120.313 16.2431 120.835 16.3364 121.496 16.3364C122.213 16.3364 122.852 16.279 123.413 16.1642C123.984 16.035 124.574 15.7527 125 15.5661V16.1137V16.7395V17.3653V17.991V18.5264C124.574 18.6413 124.455 18.7417 124.018 18.8278C123.592 18.8996 123.149 18.957 122.69 19C122.23 19.0575 121.731 19.0862 121.193 19.0862C120.431 19.0862 119.77 19.0144 119.209 18.8709C118.649 18.713 118.172 18.4906 117.78 18.2035C117.399 17.9022 117.091 17.5505 116.855 17.1487C116.631 16.7469 116.469 16.302 116.368 15.814C116.267 15.3261 116.216 14.7951 116.216 14.221C116.216 13.8192 116.216 13.3384 116.216 12.7787C116.216 12.2046 116.216 11.5875 116.216 10.9273C116.228 10.2672 116.233 9.59264 116.233 8.90377C116.244 8.20054 116.317 7.51167 116.317 6.83715C116.317 6.14828 116.317 5.51818 116.317 4.91542C116.317 4.2983 116.317 3.7444 116.317 3.28516Z"
    fill="#00A0FF" />
  <path
    d="M106.508 19.0864C105.64 19.0864 104.846 18.9961 104.127 18.8155C103.407 18.6487 102.768 18.3917 102.208 18.0443C101.66 17.6969 101.198 17.2523 100.821 16.7103C100.444 16.1684 100.153 15.5431 99.947 14.8345C99.7528 14.1119 99.6558 13.2921 99.6558 12.375C99.6558 11.2356 99.8099 10.2559 100.118 9.43611C100.438 8.60239 100.895 7.92151 101.489 7.39349C102.083 6.85157 102.802 6.44861 103.647 6.18459C104.504 5.92058 105.469 5.78857 106.542 5.78857C107.433 5.78857 108.215 5.87195 108.889 6.03869C109.563 6.19154 110.134 6.42082 110.602 6.72651C111.082 7.01832 111.47 7.38654 111.767 7.8312C112.064 8.27585 112.281 8.77608 112.418 9.3319C112.567 9.88771 112.641 10.5061 112.641 11.1869L112.641 11.9566V12.6932V13.674H111.472C111.072 13.674 110.174 13.674 110.174 13.674C110.174 13.674 109.175 13.674 108.615 13.674C108.056 13.674 107.426 13.674 106.798 13.674C106.181 13.674 104.98 13.674 104.98 13.674C104.374 13.674 103.292 13.674 103.292 13.674C102.766 13.674 102.123 13.674 102.123 13.674L101.993 11.4146H103.305H104.85H106.542H107.966H109.394C109.394 11.4146 109.883 11.4285 110.191 11.4146L109.986 12.0623C110.02 11.9373 110.078 11.4996 110.088 11.4146C110.111 11.2201 110.088 11.173 110.088 10.9368C110.088 10.4783 110.02 10.0753 109.883 9.72791C109.757 9.36663 109.546 9.06788 109.249 8.83166C108.963 8.58155 108.592 8.39396 108.135 8.2689C107.69 8.14384 107.148 8.08131 106.508 8.08131C105.743 8.08131 105.092 8.16468 104.555 8.33143C104.018 8.48428 103.579 8.73439 103.236 9.08178C102.893 9.42916 102.642 9.88771 102.482 10.4574C102.334 11.0132 102.26 11.7011 102.26 12.5209C102.26 13.2573 102.345 13.8965 102.517 14.4384C102.688 14.9665 102.945 15.3972 103.287 15.7307C103.641 16.0642 104.087 16.3143 104.624 16.4811C105.172 16.6339 105.811 16.7103 106.542 16.7103C107.09 16.7103 107.564 16.6756 107.964 16.6061C108.364 16.5366 108.701 16.4324 108.975 16.2935C109.249 16.1545 109.46 15.9947 109.609 15.8141C109.769 15.6334 109.883 15.432 109.951 15.2096C110.031 14.9734 110.097 14.5218 110.097 14.5218H110.465H110.688H110.911H111.407H112.065H112.624C112.624 14.5218 112.641 15.3784 112.538 15.7724C112.469 16.1754 112.35 16.5505 112.178 16.8979C112.018 17.2314 111.784 17.5371 111.476 17.815C111.179 18.079 110.802 18.3083 110.345 18.5028C109.9 18.6835 109.357 18.8224 108.718 18.9197C108.09 19.0309 107.353 19.0864 106.508 19.0864Z"
    fill="#00A0FF" />
  <path
    d="M97.7784 19.0864H94.8619C94.8733 18.508 94.879 17.8716 94.879 17.1775C94.8905 16.4688 94.8962 15.7023 94.8962 14.878C94.9076 14.0392 94.9134 13.1425 94.9134 12.188C94.9134 11.3492 94.8047 10.6695 94.5874 10.1489C94.3701 9.61379 94.0155 9.22331 93.5237 8.97746C93.0319 8.7316 92.38 8.60868 91.568 8.60868C91.0075 8.60868 90.4757 8.68822 89.9725 8.8473C89.4806 9.00639 89.046 9.25224 88.6686 9.58487C88.3026 9.91749 88.0167 10.3441 87.8108 10.8648C87.6049 11.3709 87.502 11.9856 87.502 12.7087C87.502 13.4462 87.502 14.1043 87.502 14.6827C87.502 15.2612 87.502 15.7746 87.502 16.223C87.5134 16.6568 87.5192 17.0473 87.5192 17.3944C87.5192 17.7415 87.5192 18.0524 87.5192 18.3272C87.5306 18.602 87.5363 18.8551 87.5363 19.0864H84.637V17.3301V15.3229V12.7585V9.01274V5.78857H87.5535C87.5535 6.2369 87.5477 6.93108 87.5363 7.30709C87.5249 7.68311 87.5134 8.07358 87.502 8.47852C87.4906 8.88346 87.4734 9.36071 87.4505 9.91026L87.3819 8.80392L87.7937 8.93407L87.2961 9.82349C87.5134 8.89792 87.8566 8.13866 88.3255 7.54572C88.8058 6.95277 89.412 6.51168 90.144 6.22244C90.8874 5.93319 91.7509 5.78857 92.7346 5.78857C93.5466 5.78857 94.2614 5.89704 94.879 6.11397C95.5081 6.3309 96.0342 6.66353 96.4574 7.11185C96.892 7.56018 97.218 8.13866 97.4353 8.8473C97.6526 9.55595 97.7783 10.4312 97.7783 11.4146V12.5127V13.4604V14.2276V14.9948V17.0406L97.7784 19.0864Z"
    fill="#00A0FF" />
  <path
    d="M43.5378 12.1552C43.5378 11.7658 43.5047 11.4413 43.4386 11.1817C43.3724 10.9091 43.2696 10.695 43.13 10.5392C42.9977 10.3705 42.8323 10.2472 42.6339 10.1693C42.4429 10.0914 42.2188 10.0525 41.9616 10.0525C41.7117 10.0525 41.4876 10.0914 41.2892 10.1693C41.0982 10.2342 40.9365 10.351 40.8042 10.5197C40.672 10.6885 40.5691 10.9026 40.4956 11.1622C40.4295 11.4218 40.3964 11.7528 40.3964 12.1552C40.3964 12.5446 40.4295 12.8756 40.4956 13.1482C40.5691 13.4207 40.672 13.6479 40.8042 13.8296C40.9365 13.9983 41.0982 14.1216 41.2892 14.1995C41.4876 14.2774 41.7117 14.3163 41.9616 14.3163C42.2188 14.3163 42.4429 14.2774 42.6339 14.1995C42.8323 14.1087 42.9977 13.9789 43.13 13.8101C43.2696 13.6284 43.3724 13.4013 43.4386 13.1287C43.5047 12.8561 43.5378 12.5316 43.5378 12.1552ZM49.2804 12.1552C49.2804 13.3623 49.1334 14.4007 48.8395 15.2704C48.5529 16.14 48.1084 16.8604 47.5058 17.4315C46.9106 17.9896 46.1501 18.405 45.2242 18.6776C44.2983 18.9502 43.1998 19.0864 41.9285 19.0864C40.6573 19.0864 39.5661 18.9502 38.6549 18.6776C37.7511 18.405 37.0089 17.9896 36.4284 17.4315C35.8479 16.8604 35.418 16.14 35.1388 15.2704C34.8669 14.4007 34.731 13.3623 34.731 12.1552C34.731 10.8572 34.8816 9.79935 35.1829 8.98162C35.4841 8.15091 35.9361 7.50841 36.5386 7.05411C37.1412 6.58684 37.8907 6.26234 38.7872 6.08062C39.691 5.88592 40.7418 5.78857 41.9395 5.78857C43.1373 5.78857 44.1918 5.88592 45.1029 6.08062C46.0215 6.26234 46.7894 6.58684 47.4066 7.05411C48.0239 7.50841 48.4905 8.15091 48.8064 8.98162C49.1224 9.79935 49.2804 10.8572 49.2804 12.1552Z"
    fill="#1E2F56" />
  <path
    d="M59.7521 12.1583C59.7521 11.7868 59.7225 11.4751 59.6634 11.223C59.6116 10.9709 59.5303 10.7719 59.4194 10.626C59.3085 10.4668 59.1717 10.354 59.0091 10.2877C58.8464 10.2081 58.6579 10.1683 58.4435 10.1683C58.2143 10.1683 58.0073 10.2147 57.8225 10.3076C57.6451 10.3872 57.4861 10.5265 57.3457 10.7255C57.2126 10.9245 57.1091 11.1965 57.0352 11.5414C56.9686 11.8731 56.9353 12.2844 56.9353 12.7752V14.5066L56.4807 13.9096C56.6285 14.0157 56.7912 14.1086 56.9686 14.1882C57.1461 14.2678 57.3383 14.3275 57.5453 14.3673C57.7597 14.3938 57.9925 14.4071 58.2439 14.4071C58.5101 14.4071 58.7392 14.3673 58.9315 14.2877C59.1237 14.1948 59.2789 14.0621 59.3972 13.8897C59.5155 13.7039 59.6042 13.4717 59.6634 13.1931C59.7225 12.9013 59.7521 12.5563 59.7521 12.1583ZM57.0906 19.2429H51.1577V16.5271V13.988V10.9721V8.75004V6.77492V5.04668V3.44189H57.1017C57.0943 3.89297 57.0906 4.35732 57.0906 4.83493C57.0906 5.31254 57.0906 5.82995 57.0906 6.38717C57.0906 6.81171 57.0832 7.20309 57.0684 7.5613C57.061 7.91951 57.0499 8.29098 57.0352 8.67573C57.0204 9.06047 56.9982 9.50491 56.9686 10.0091L56.8245 8.61603L57.3568 8.85483L56.7579 9.90956C56.9871 8.8482 57.3087 8.01237 57.7227 7.40209C58.1367 6.79181 58.6357 6.354 59.2198 6.08866C59.8112 5.81005 60.4766 5.67075 61.2159 5.67075C61.7999 5.67075 62.3249 5.75035 62.7906 5.90956C63.2638 6.05549 63.6815 6.2943 64.0437 6.62598C64.406 6.95765 64.7091 7.38883 64.9531 7.91951C65.2044 8.45019 65.393 9.087 65.5186 9.82996C65.6443 10.5729 65.7072 11.4286 65.7072 12.3971C65.7072 13.6442 65.611 14.7056 65.4188 15.5812C65.234 16.4436 64.9568 17.1467 64.5871 17.6907C64.2175 18.2346 63.7554 18.626 63.2009 18.8648C62.6464 19.1169 61.9996 19.2429 61.2603 19.2429C60.5284 19.2429 59.9073 19.1434 59.3972 18.9444C58.8871 18.7586 58.4694 18.4999 58.1441 18.1683C57.8188 17.8366 57.5638 17.4717 57.3789 17.0737C57.1941 16.6757 57.0573 16.2711 56.9686 15.8598C56.8799 15.4485 56.8134 15.0704 56.769 14.7255L57.5564 16.4568L56.7025 16.7155L56.9464 14.6857C56.9908 15.2031 57.0204 15.7072 57.0352 16.1981C57.0499 16.689 57.0573 17.1732 57.0573 17.6509C57.0573 17.8499 57.061 18.0489 57.0684 18.2479C57.0758 18.4336 57.0832 19.0306 57.0906 19.2429Z"
    fill="#1E2F56" />
  <path
    d="M76.3913 12.1552C76.3913 11.7658 76.3582 11.4413 76.2921 11.1817C76.226 10.9091 76.1231 10.695 75.9835 10.5392C75.8512 10.3705 75.6859 10.2472 75.4875 10.1693C75.2964 10.0914 75.0723 10.0525 74.8151 10.0525C74.5653 10.0525 74.3411 10.0914 74.1427 10.1693C73.9517 10.2342 73.79 10.351 73.6578 10.5197C73.5255 10.6885 73.4226 10.9026 73.3491 11.1622C73.283 11.4218 73.2499 11.7528 73.2499 12.1552C73.2499 12.5446 73.283 12.8756 73.3491 13.1482C73.4226 13.4207 73.5255 13.6479 73.6578 13.8296C73.79 13.9983 73.9517 14.1216 74.1427 14.1995C74.3411 14.2774 74.5653 14.3163 74.8151 14.3163C75.0723 14.3163 75.2964 14.2774 75.4875 14.1995C75.6859 14.1087 75.8512 13.9789 75.9835 13.8101C76.1231 13.6284 76.226 13.4013 76.2921 13.1287C76.3582 12.8561 76.3913 12.5316 76.3913 12.1552ZM82.1339 12.1552C82.1339 13.3623 81.9869 14.4007 81.693 15.2704C81.4064 16.14 80.9619 16.8604 80.3593 17.4315C79.7641 17.9896 79.0036 18.405 78.0777 18.6776C77.1518 18.9502 76.0533 19.0864 74.782 19.0864C73.5108 19.0864 72.4196 18.9502 71.5084 18.6776C70.6046 18.405 69.8624 17.9896 69.2819 17.4315C68.7014 16.8604 68.2715 16.14 67.9923 15.2704C67.7204 14.4007 67.5845 13.3623 67.5845 12.1552C67.5845 10.8572 67.7351 9.79935 68.0364 8.98162C68.3377 8.15091 68.7896 7.50841 69.3921 7.05411C69.9947 6.58684 70.7442 6.26234 71.6407 6.08062C72.5445 5.88592 73.5953 5.78857 74.7931 5.78857C75.9908 5.78857 77.0453 5.88592 77.9565 6.08062C78.875 6.26234 79.6429 6.58684 80.2601 7.05411C80.8774 7.50841 81.344 8.15091 81.66 8.98162C81.9759 9.79935 82.1339 10.8572 82.1339 12.1552Z"
    fill="#1E2F56" />
  <path
    d="M29.8108 19.0864H23.4668C23.4967 18.159 23.5117 17.177 23.5117 16.1405C23.5191 15.1039 23.5229 13.8832 23.5229 12.4784C23.5229 11.1009 23.5191 9.90068 23.5117 8.87777C23.5117 7.84122 23.4967 6.70238 23.4668 5.78857H28.4657C28.4358 6.37504 28.406 7.11154 28.3761 7.67073C28.3537 8.21629 28.3201 9.38923 28.3201 9.38923L28.2864 11.3941L28.2248 10.2076L28.1631 9.02098L28.5554 9.12327L28.1071 11.3941L28.4882 8.75502C28.6974 8.03217 28.9589 7.45251 29.2728 7.01607C29.5941 6.56599 29.9565 6.2523 30.36 6.07499C30.7635 5.88405 31.1894 5.78857 31.6377 5.78857C31.8033 5.78857 32.0274 5.80945 32.1854 5.82686C32.3137 5.84098 32.4411 5.86103 32.5682 5.88319L32.8535 5.93292V7.73088V9.46427V11.3561V13.1217C32.4624 12.9956 32.3476 12.9831 32.1309 12.9285C31.9142 12.8603 31.6639 12.8262 31.3799 12.8262C31.0885 12.8262 30.8382 12.874 30.629 12.9694C30.4198 13.0649 30.2479 13.2149 30.1134 13.4195C29.9864 13.6105 29.8892 13.8696 29.822 14.1969C29.7622 14.5106 29.7323 14.8789 29.7323 15.3017C29.7323 15.6426 29.7323 15.9836 29.7323 16.3246C29.7398 16.6655 29.7473 16.9997 29.7547 17.327C29.7622 17.6544 29.7697 17.9681 29.7771 18.2681C29.7846 18.5682 29.7958 18.8409 29.8108 19.0864Z"
    fill="#1E2F56" />
  <path
    d="M9.19014 22.0586C8.59483 22.0586 8.06475 22.0491 7.61237 22.0305C7.15583 22.0117 6.75757 21.981 6.4287 21.9392C6.09843 21.8974 5.82368 21.8431 5.60998 21.778C5.39767 21.7134 5.24364 21.6361 5.14789 21.5485C5.05492 21.4619 5.00635 21.3576 5.00635 21.239C5.00635 21.1295 5.05908 21.0315 5.16315 20.9487C5.26862 20.8645 5.43791 20.7922 5.66549 20.7342C5.89306 20.676 6.17892 20.6281 6.51751 20.5921C6.85332 20.5563 7.24603 20.5309 7.68869 20.5161C8.1258 20.5016 8.63369 20.4941 9.19985 20.4941C9.88396 20.4941 10.4987 20.5063 11.026 20.5301C11.5616 20.5542 12.0154 20.5961 12.3776 20.654C12.7398 20.7123 13.0145 20.7904 13.1908 20.8857C13.3656 20.9796 13.4544 21.0987 13.4544 21.239C13.4544 21.3579 13.4017 21.4622 13.2976 21.549C13.1921 21.6366 13.0284 21.7137 12.8091 21.7783C12.5899 21.8434 12.3054 21.8974 11.9641 21.9395C11.6255 21.9813 11.2231 22.012 10.7707 22.0305C10.3225 22.0491 9.7896 22.0586 9.18875 22.0586H9.19014Z"
    fill="#00A0FF" />
  <path
    d="M9.22431 2.65957C9.13612 2.65957 9.05759 2.64337 8.99057 2.61187C8.92293 2.57992 8.86393 2.52772 8.81521 2.45662C8.76628 2.38552 8.72558 2.29326 8.69392 2.18256C8.66247 2.07276 8.63965 1.94135 8.62546 1.7924C8.61169 1.64525 8.60449 1.46794 8.60449 1.26634C8.60449 1.08003 8.6123 0.913526 8.62772 0.772672C8.64335 0.629568 8.66843 0.506714 8.70214 0.408161C8.73586 0.309159 8.77821 0.227706 8.82837 0.166505C8.87812 0.105753 8.9363 0.0625517 9.00188 0.037351C9.06663 0.0126003 9.14188 0 9.22575 0C9.3271 0 9.41817 0.0207006 9.49629 0.0612017C9.57565 0.102153 9.64287 0.173255 9.69653 0.271808C9.75018 0.37081 9.79089 0.503564 9.817 0.665569C9.8429 0.825323 9.85606 1.02783 9.85606 1.26634C9.85606 1.46839 9.84824 1.6457 9.83283 1.7933C9.8172 1.94225 9.79294 2.07321 9.76046 2.18301C9.72798 2.29371 9.68584 2.38552 9.63527 2.45707C9.5851 2.52817 9.52549 2.58037 9.45847 2.61187C9.39207 2.64337 9.31312 2.65957 9.22411 2.65957H9.22431Z"
    fill="#00A0FF" />
  <path fill-rule="evenodd" clip-rule="evenodd"
    d="M13.435 19.8687C13.2647 19.8196 13.0602 19.7769 12.8238 19.7411C12.4013 19.6773 11.8719 19.6312 11.247 19.6047C10.6318 19.5785 9.91458 19.5651 9.11645 19.5651C8.45592 19.5651 7.86339 19.5732 7.35343 19.5893C6.83699 19.6056 6.37883 19.6336 5.98705 19.6729C5.59203 19.7125 5.25853 19.7653 4.99302 19.8294C4.94345 19.8413 4.89626 19.8537 4.85147 19.8667C4.20025 19.683 3.61627 19.4403 3.1081 19.1414C2.38641 18.7187 1.78602 18.1703 1.31905 17.5122C0.855107 16.8594 0.518523 16.0782 0.309295 15.1927C0.106131 14.3179 0 13.2639 0 12.0653C0 10.9578 0.115228 9.96792 0.34265 9.13056C0.573104 8.27982 0.943042 7.54947 1.44034 6.96358C1.93763 6.37502 2.56228 5.8908 3.30216 5.52696C4.03598 5.1658 4.89411 4.90897 5.86141 4.75916C6.81659 4.61202 7.9264 4.53711 9.16358 4.53711C10.6585 4.53711 12.0018 4.66017 13.1541 4.90095C14.3245 5.1444 15.3161 5.56709 16.1075 6.15298C16.8989 6.74154 17.4993 7.53074 17.8844 8.49384C18.2665 9.44356 18.4606 10.6474 18.4606 12.0653C18.4606 13.2665 18.3454 14.3206 18.1179 15.1981C17.8875 16.0836 17.5297 16.8621 17.0506 17.5149C16.5715 18.173 15.9498 18.7187 15.2039 19.1441C14.6805 19.4431 14.0873 19.6859 13.435 19.8687Z"
    fill="#00A0FF" />
  <path
    d="M9.16625 16.7395C8.21817 16.7395 7.37396 16.6766 6.65351 16.5543C5.92643 16.4302 5.29216 16.2276 4.7684 15.9515C4.24242 15.6755 3.80485 15.3173 3.46451 14.8875C3.12639 14.4612 2.88108 13.9511 2.72859 13.3728C2.58052 12.8015 2.50317 12.1131 2.50317 11.3304C2.50317 10.6071 2.58715 9.96069 2.7529 9.41385C2.92086 8.85827 3.19048 8.38131 3.55291 7.99869C3.91535 7.61433 4.3706 7.2981 4.90983 7.06049C5.44465 6.82463 6.07007 6.65691 6.77505 6.55907C7.47119 6.46298 8.28004 6.41406 9.18171 6.41406C10.2712 6.41406 11.2502 6.49443 12.09 6.65167C12.9431 6.81066 13.6658 7.0867 14.2426 7.46932C14.8194 7.85368 15.2569 8.36908 15.5376 8.99803C15.8161 9.61826 15.9575 10.4045 15.9575 11.3304C15.9575 12.1149 15.8735 12.8032 15.7078 13.3763C15.5398 13.9546 15.279 14.463 14.9299 14.8893C14.5807 15.3191 14.1276 15.6755 13.584 15.9533C13.0447 16.2293 12.4039 16.432 11.6834 16.5543C10.9696 16.6766 10.121 16.7395 9.16403 16.7395H9.16625Z"
    fill="white" />
  <path
    d="M6.48126 12.2027C6.31589 12.2027 6.16865 12.1808 6.04299 12.1382C5.91617 12.095 5.80554 12.0243 5.71419 11.9282C5.62245 11.832 5.54613 11.7071 5.48677 11.5574C5.42779 11.4088 5.38501 11.231 5.35841 11.0295C5.33258 10.8304 5.31909 10.5905 5.31909 10.3178C5.31909 10.0657 5.33374 9.84044 5.36265 9.64987C5.39194 9.45626 5.43897 9.29005 5.50219 9.15671C5.5654 9.02277 5.64481 8.91257 5.73886 8.82976C5.83214 8.74757 5.94122 8.68912 6.06419 8.65503C6.18561 8.62154 6.32669 8.60449 6.48395 8.60449C6.67399 8.60449 6.84474 8.6325 6.99122 8.68729C7.14001 8.7427 7.26605 8.8389 7.36666 8.97223C7.46726 9.10618 7.54358 9.28578 7.59254 9.50497C7.64111 9.72111 7.66577 9.99508 7.66577 10.3178C7.66577 10.5911 7.65113 10.831 7.62222 11.0307C7.59292 11.2322 7.54744 11.4094 7.48654 11.558C7.42563 11.7078 7.34661 11.832 7.25179 11.9288C7.15774 12.025 7.04595 12.0956 6.92029 12.1382C6.79579 12.1808 6.64777 12.2027 6.48087 12.2027H6.48126Z"
    fill="#00A0FF" />
  <path
    d="M11.9568 12.2027C11.7915 12.2027 11.6442 12.1808 11.5186 12.1382C11.3918 12.095 11.2811 12.0243 11.1898 11.9282C11.098 11.832 11.0217 11.7071 10.9624 11.5574C10.9034 11.4088 10.8606 11.231 10.834 11.0295C10.8082 10.8304 10.7947 10.5905 10.7947 10.3178C10.7947 10.0657 10.8093 9.84044 10.8382 9.64987C10.8675 9.45626 10.9146 9.29005 10.9778 9.15671C11.041 9.02277 11.1204 8.91257 11.2144 8.82976C11.3077 8.74757 11.4168 8.68912 11.5398 8.65503C11.6612 8.62154 11.8023 8.60449 11.9595 8.60449C12.1496 8.60449 12.3203 8.6325 12.4668 8.68729C12.6156 8.7427 12.7416 8.8389 12.8422 8.97223C12.9428 9.10618 13.0192 9.28578 13.0681 9.50497C13.1167 9.72111 13.1414 9.99508 13.1414 10.3178C13.1414 10.5911 13.1267 10.831 13.0978 11.0307C13.0685 11.2322 13.023 11.4094 12.9621 11.558C12.9012 11.7078 12.8222 11.832 12.7274 11.9288C12.6333 12.025 12.5215 12.0956 12.3959 12.1382C12.2714 12.1808 12.1234 12.2027 11.9565 12.2027H11.9568Z"
    fill="#00A0FF" />
</svg>
  